<svg xmlns="http://www.w3.org/2000/svg" width="256" height="256" shape-rendering="crispEdges">
  <rect width="256" height="256" fill="#66a3ff"/>
  <rect x="65" y="2" width="21" height="21" fill="#b45309"/><rect x="86" y="2" width="21" height="21" fill="#b45309"/><rect x="107" y="2" width="21" height="21" fill="#b45309"/><rect x="128" y="2" width="21" height="21" fill="#b45309"/><rect x="149" y="2" width="21" height="21" fill="#b45309"/><rect x="44" y="23" width="21" height="21" fill="#b45309"/><rect x="65" y="23" width="21" height="21" fill="#b45309"/><rect x="149" y="23" width="21" height="21" fill="#b45309"/><rect x="170" y="23" width="21" height="21" fill="#b45309"/><rect x="65" y="44" width="21" height="21" fill="#f5c19a"/><rect x="86" y="44" width="21" height="21" fill="#f5c19a"/><rect x="107" y="44" width="21" height="21" fill="#f5c19a"/><rect x="128" y="44" width="21" height="21" fill="#f5c19a"/><rect x="149" y="44" width="21" height="21" fill="#f5c19a"/><rect x="170" y="44" width="21" height="21" fill="#f5c19a"/><rect x="65" y="65" width="21" height="21" fill="#f5c19a"/><rect x="86" y="65" width="21" height="21" fill="#1a1a1a"/><rect x="107" y="65" width="21" height="21" fill="#f5c19a"/><rect x="128" y="65" width="21" height="21" fill="#f5c19a"/><rect x="149" y="65" width="21" height="21" fill="#1a1a1a"/><rect x="170" y="65" width="21" height="21" fill="#f5c19a"/><rect x="65" y="86" width="21" height="21" fill="#f5c19a"/><rect x="86" y="86" width="21" height="21" fill="#f5c19a"/><rect x="107" y="86" width="21" height="21" fill="#c04040"/><rect x="128" y="86" width="21" height="21" fill="#c04040"/><rect x="149" y="86" width="21" height="21" fill="#f5c19a"/><rect x="170" y="86" width="21" height="21" fill="#f5c19a"/><rect x="65" y="107" width="21" height="21" fill="#e63946"/><rect x="86" y="107" width="21" height="21" fill="#e63946"/><rect x="107" y="107" width="21" height="21" fill="#e63946"/><rect x="128" y="107" width="21" height="21" fill="#e63946"/><rect x="149" y="107" width="21" height="21" fill="#e63946"/><rect x="170" y="107" width="21" height="21" fill="#e63946"/><rect x="44" y="128" width="21" height="21" fill="#e63946"/><rect x="65" y="128" width="21" height="21" fill="#e63946"/><rect x="86" y="128" width="21" height="21" fill="#e63946"/><rect x="107" y="128" width="21" height="21" fill="#e63946"/><rect x="128" y="128" width="21" height="21" fill="#e63946"/><rect x="149" y="128" width="21" height="21" fill="#e63946"/><rect x="170" y="128" width="21" height="21" fill="#e63946"/><rect x="191" y="128" width="21" height="21" fill="#e63946"/><rect x="44" y="149" width="21" height="21" fill="#c0392b"/><rect x="65" y="149" width="21" height="21" fill="#e63946"/><rect x="86" y="149" width="21" height="21" fill="#c0392b"/><rect x="107" y="149" width="21" height="21" fill="#e63946"/><rect x="128" y="149" width="21" height="21" fill="#e63946"/><rect x="149" y="149" width="21" height="21" fill="#c0392b"/><rect x="170" y="149" width="21" height="21" fill="#e63946"/><rect x="191" y="149" width="21" height="21" fill="#c0392b"/><rect x="65" y="170" width="21" height="21" fill="#c0392b"/><rect x="86" y="170" width="21" height="21" fill="#c0392b"/><rect x="107" y="170" width="21" height="21" fill="#c0392b"/><rect x="128" y="170" width="21" height="21" fill="#c0392b"/><rect x="149" y="170" width="21" height="21" fill="#c0392b"/><rect x="170" y="170" width="21" height="21" fill="#c0392b"/><rect x="65" y="191" width="21" height="21" fill="#4a1010"/><rect x="86" y="191" width="21" height="21" fill="#4a1010"/><rect x="149" y="191" width="21" height="21" fill="#4a1010"/><rect x="170" y="191" width="21" height="21" fill="#4a1010"/><rect x="65" y="212" width="21" height="21" fill="#4a1010"/><rect x="86" y="212" width="21" height="21" fill="#4a1010"/><rect x="149" y="212" width="21" height="21" fill="#4a1010"/><rect x="170" y="212" width="21" height="21" fill="#4a1010"/><rect x="65" y="233" width="21" height="21" fill="#0a0a0a"/><rect x="86" y="233" width="21" height="21" fill="#0a0a0a"/><rect x="149" y="233" width="21" height="21" fill="#0a0a0a"/><rect x="170" y="233" width="21" height="21" fill="#0a0a0a"/>
</svg>